<svg xmlns="http://www.w3.org/2000/svg" version="1.1" xmlns:xlink="http://www.w3.org/1999/xlink" xmlns:svgjs="http://svgjs.dev/svgjs" width="2000" height="1999" viewBox="0 0 2000 1999"><g transform="matrix(1,0,0,1,-0.431486880466764,-0.4312711370263287)"><svg viewBox="0 0 343 343" data-background-color="#ffffff" preserveAspectRatio="xMidYMid meet" height="1999" width="2000" xmlns="http://www.w3.org/2000/svg" xmlns:xlink="http://www.w3.org/1999/xlink"><g id="tight-bounds" transform="matrix(1,0,0,1,0.0740000000000407,0.07400000000001228)"><svg viewBox="0 0 342.85155851775386 342.85155851775386" height="342.85155851775386" width="342.85155851775386"><g><svg></svg></g><g><svg viewBox="0 0 342.85155851775386 342.85155851775386" height="342.85155851775386" width="342.85155851775386"><g><path d="M0 171.426c0-94.676 76.75-171.426 171.426-171.426 94.676 0 171.426 76.75 171.426 171.426 0 94.676-76.75 171.426-171.426 171.426-94.676 0-171.426-76.75-171.426-171.426zM171.426 341.184c93.755 0 169.758-76.003 169.758-169.758 0-93.755-76.003-169.758-169.758-169.758-93.755 0-169.758 76.003-169.758 169.758 0 93.755 76.003 169.758 169.758 169.758z" data-fill-palette-color="tertiary" fill="#b6a522" stroke="transparent"></path><ellipse rx="164.56874808852186" ry="164.56874808852186" cx="171.42577925887693" cy="171.42577925887693" fill="#b6a522" stroke="transparent" stroke-width="0" fill-opacity="1" data-fill-palette-color="tertiary"></ellipse></g><g transform="matrix(1,0,0,1,64.84655864529837,128.4036633936549)"><svg viewBox="0 0 213.1584412271571 86.04423173044403" height="86.04423173044403" width="213.1584412271571"><g><svg viewBox="0 0 213.1584412271571 86.04423173044403" height="86.04423173044403" width="213.1584412271571"><g transform="matrix(1,0,0,1,0,51.75448251199781)"><svg viewBox="0 0 213.1584412271571 34.28974921844622" height="34.28974921844622" width="213.1584412271571"><g id="textblocktransform"><svg viewBox="0 0 213.1584412271571 34.28974921844622" height="34.28974921844622" width="213.1584412271571" id="textblock"><g><svg viewBox="0 0 213.1584412271571 18.49425224124913" height="18.49425224124913" width="213.1584412271571"><g transform="matrix(1,0,0,1,0,0)"><svg width="213.1584412271571" viewBox="0.85 -35.75 415.46999999999997 36.05" height="18.49425224124913" data-palette-color="#ffffff"><path d="M29.65-35.5L29.65-32.4 17-32.4 17 0 13.5 0 13.5-32.4 0.85-32.4 0.85-35.5 29.65-35.5ZM59.5-35.5L62.95-35.5 62.95 0 59.5 0 59.5-16.6 38.45-16.6 38.45 0 34.95 0 34.95-35.5 38.45-35.5 38.45-19.7 59.5-19.7 59.5-35.5ZM75.34-3.1L95.69-3.1 95.69 0 71.84 0 71.84-35.5 95.25-35.5 95.25-32.4 75.34-32.4 75.34-19.6 92.69-19.6 92.69-16.65 75.34-16.65 75.34-3.1ZM109.64 0L124.49-35.5 127.44-35.5 142.19 0 138.49 0 133.89-11.1 117.94-11.1 113.39 0 109.64 0ZM118.69-13.85L133.09-13.85 125.94-31.4 118.69-13.85ZM160.24 0.25L160.24 0.25Q156.04 0.25 153.14-1.25 150.24-2.75 148.54-5.28 146.84-7.8 146.06-11 145.29-14.2 145.29-17.6L145.29-17.6 145.29-35.5 148.74-35.5 148.74-17.6Q148.74-14.85 149.31-12.2 149.89-9.55 151.19-7.45 152.49-5.35 154.69-4.13 156.89-2.9 160.19-2.9L160.19-2.9Q163.59-2.9 165.81-4.17 168.04-5.45 169.31-7.55 170.59-9.65 171.14-12.28 171.69-14.9 171.69-17.6L171.69-17.6 171.69-35.5 175.19-35.5 175.19-17.6Q175.19-14.05 174.39-10.8 173.59-7.55 171.81-5.1 170.04-2.65 167.19-1.2 164.34 0.25 160.24 0.25ZM208.74-35.5L208.74-32.4 196.09-32.4 196.09 0 192.59 0 192.59-32.4 179.94-32.4 179.94-35.5 208.74-35.5ZM227.08 0.25L227.08 0.25Q223.33 0.25 220.28-1.25 217.23-2.75 215.03-5.33 212.83-7.9 211.63-11.13 210.43-14.35 210.43-17.75L210.43-17.75Q210.43-21.3 211.68-24.53 212.93-27.75 215.21-30.28 217.48-32.8 220.53-34.27 223.58-35.75 227.13-35.75L227.13-35.75Q230.88-35.75 233.93-34.2 236.98-32.65 239.16-30.05 241.33-27.45 242.53-24.25 243.73-21.05 243.73-17.7L243.73-17.7Q243.73-14.15 242.48-10.93 241.23-7.7 238.98-5.18 236.73-2.65 233.68-1.2 230.63 0.25 227.08 0.25ZM213.93-17.75L213.93-17.75Q213.93-14.85 214.88-12.18 215.83-9.5 217.58-7.43 219.33-5.35 221.76-4.13 224.18-2.9 227.08-2.9L227.08-2.9Q230.13-2.9 232.56-4.17 234.98-5.45 236.71-7.58 238.43-9.7 239.33-12.35 240.23-15 240.23-17.75L240.23-17.75Q240.23-20.65 239.28-23.3 238.33-25.95 236.56-28.05 234.78-30.15 232.38-31.35 229.98-32.55 227.08-32.55L227.08-32.55Q224.08-32.55 221.66-31.3 219.23-30.05 217.51-27.93 215.78-25.8 214.86-23.15 213.93-20.5 213.93-17.75ZM272.78-31.65L271.08-28.85Q270.33-29.7 269.33-30.38 268.33-31.05 267.08-31.55 265.83-32.05 264.41-32.35 262.98-32.65 261.38-32.65L261.38-32.65Q256.73-32.65 254.56-30.88 252.38-29.1 252.38-26.05L252.38-26.05Q252.38-23.95 253.41-22.75 254.43-21.55 256.63-20.8 258.83-20.05 262.23-19.25L262.23-19.25Q266.03-18.45 268.78-17.35 271.53-16.25 273.03-14.38 274.53-12.5 274.53-9.3L274.53-9.3Q274.53-6.85 273.58-5.05 272.63-3.25 270.93-2.05 269.23-0.85 266.88-0.28 264.53 0.3 261.73 0.3L261.73 0.3Q258.98 0.3 256.46-0.28 253.93-0.85 251.68-1.98 249.43-3.1 247.48-4.85L247.48-4.85 249.23-7.7Q250.18-6.7 251.51-5.83 252.83-4.95 254.46-4.25 256.08-3.55 257.96-3.18 259.83-2.8 261.83-2.8L261.83-2.8Q266.08-2.8 268.46-4.35 270.83-5.9 270.83-8.95L270.83-8.95Q270.83-11.15 269.63-12.48 268.43-13.8 266.03-14.65 263.63-15.5 260.13-16.3L260.13-16.3Q256.43-17.15 253.88-18.2 251.33-19.25 250.06-20.98 248.78-22.7 248.78-25.55L248.78-25.55Q248.78-28.85 250.41-31.13 252.03-33.4 254.88-34.58 257.73-35.75 261.43-35.75L261.43-35.75Q263.78-35.75 265.81-35.27 267.83-34.8 269.56-33.9 271.28-33 272.78-31.65L272.78-31.65ZM278.33-18L278.33-18Q278.33-21.25 279.45-24.38 280.58-27.5 282.73-30.08 284.88-32.65 288.03-34.18 291.18-35.7 295.18-35.7L295.18-35.7Q299.93-35.7 303.3-33.52 306.68-31.35 308.28-27.95L308.28-27.95 305.53-26.25Q304.38-28.6 302.63-29.98 300.88-31.35 298.9-31.95 296.93-32.55 294.98-32.55L294.98-32.55Q291.78-32.55 289.33-31.28 286.88-30 285.2-27.88 283.53-25.75 282.68-23.13 281.83-20.5 281.83-17.8L281.83-17.8Q281.83-14.85 282.83-12.15 283.83-9.45 285.63-7.38 287.43-5.3 289.85-4.08 292.28-2.85 295.13-2.85L295.13-2.85Q297.13-2.85 299.23-3.55 301.33-4.25 303.15-5.7 304.98-7.15 306.08-9.45L306.08-9.45 308.98-7.95Q307.88-5.3 305.58-3.45 303.28-1.6 300.45-0.65 297.63 0.3 294.93 0.3L294.93 0.3Q291.28 0.3 288.23-1.28 285.18-2.85 282.95-5.48 280.73-8.1 279.53-11.38 278.33-14.65 278.33-18ZM318.48 0L314.98 0 314.98-35.5 329.98-35.5Q332.28-35.5 334.18-34.55 336.08-33.6 337.5-31.98 338.93-30.35 339.7-28.38 340.48-26.4 340.48-24.35L340.48-24.35Q340.48-21.8 339.5-19.55 338.53-17.3 336.75-15.75 334.98-14.2 332.58-13.7L332.58-13.7 341.28 0 337.33 0 328.98-13.1 318.48-13.1 318.48 0ZM318.48-32.4L318.48-16.2 330.08-16.2Q332.18-16.2 333.73-17.35 335.28-18.5 336.13-20.38 336.98-22.25 336.98-24.35L336.98-24.35Q336.98-26.5 336-28.33 335.03-30.15 333.4-31.28 331.78-32.4 329.78-32.4L329.78-32.4 318.48-32.4ZM351.12 0L347.62 0 347.62-35.5 351.12-35.5 351.12 0ZM363.52 0L360.02 0 360.02-35.5 374.72-35.5Q377.02-35.5 378.94-34.55 380.87-33.6 382.27-31.98 383.67-30.35 384.47-28.38 385.27-26.4 385.27-24.35L385.27-24.35Q385.27-21.45 384-18.88 382.72-16.3 380.42-14.7 378.12-13.1 375.02-13.1L375.02-13.1 363.52-13.1 363.52 0ZM363.52-32.4L363.52-16.2 374.87-16.2Q376.97-16.2 378.52-17.35 380.07-18.5 380.92-20.35 381.77-22.2 381.77-24.35L381.77-24.35Q381.77-26.55 380.77-28.4 379.77-30.25 378.14-31.33 376.52-32.4 374.57-32.4L374.57-32.4 363.52-32.4ZM416.32-35.5L416.32-32.4 403.67-32.4 403.67 0 400.17 0 400.17-32.4 387.52-32.4 387.52-35.5 416.32-35.5Z" opacity="1" transform="matrix(1,0,0,1,0,0)" fill="#ffffff" class="wordmark-text-0" data-fill-palette-color="quaternary" id="text-0"></path></svg></g></svg></g><g transform="matrix(1,0,0,1,0,22.860301333354258)"><svg viewBox="0 0 213.1584412271571 11.429447885091962" height="11.429447885091962" width="213.1584412271571"><g transform="matrix(1,0,0,1,0,0)"><svg width="213.1584412271571" viewBox="3 -36.25 884.002380944055 47.4" height="11.429447885091962" data-palette-color="#ffffff"><path d="M23.85-24.9L23.6-10.1Q23.6-8.6 23.83-7.35 24.05-6.1 24.33-4.88 24.6-3.65 24.85-2.4 25.1-1.15 25.1 0.35L25.1 0.35Q25.1 5.65 22.4 8.25 19.7 10.85 15.1 10.85L15.1 10.85Q13.6 10.85 12.1 10.58 10.6 10.3 9.33 9.95 8.05 9.6 7.15 9.25 6.25 8.9 5.95 8.75L5.95 8.75 7.35 4.4Q8.05 4.7 8.93 5.03 9.8 5.35 10.73 5.65 11.65 5.95 12.65 6.15 13.65 6.35 14.6 6.35L14.6 6.35Q17.4 6.35 18.65 4.67 19.9 3 19.9 0.35L19.9 0.35Q19.9-2.05 18.9-4.6L18.9-4.6Q17.5-1.95 15.18-0.83 12.85 0.3 10.3 0.3L10.3 0.3Q6.35 0.3 4.67-2 3-4.3 3-8.3L3-8.3 3-24.9 8.7-24.9 8.7-8.45Q8.7-6.35 9.45-5.15 10.2-3.95 12-3.95L12-3.95Q12.95-3.95 14.03-4.5 15.1-5.05 15.98-6.03 16.85-7 17.43-8.38 18-9.75 18-11.35L18-11.35 18-24.9 23.85-24.9ZM53.62-25.5Q59.37-25.5 61.97-22.1 64.57-18.7 64.57-12.75L64.57-12.75Q64.57-9.95 63.87-7.53 63.17-5.1 61.74-3.33 60.32-1.55 58.17-0.53 56.02 0.5 53.17 0.5L53.17 0.5Q50.32 0.5 48.24-0.38 46.17-1.25 44.82-2.9 43.47-4.55 42.84-6.9 42.22-9.25 42.22-12.2L42.22-12.2Q42.22-15.05 42.92-17.48 43.62-19.9 45.04-21.68 46.47-23.45 48.62-24.48 50.77-25.5 53.62-25.5L53.62-25.5ZM53.12-21.3Q51.67-21.3 50.74-20.65 49.82-20 49.29-18.82 48.77-17.65 48.57-16.07 48.37-14.5 48.37-12.7L48.37-12.7Q48.37-10.85 48.59-9.2 48.82-7.55 49.42-6.33 50.02-5.1 51.04-4.4 52.07-3.7 53.67-3.7L53.67-3.7Q55.12-3.7 56.04-4.35 56.97-5 57.49-6.18 58.02-7.35 58.22-8.9 58.42-10.45 58.42-12.25L58.42-12.25Q58.42-14.1 58.19-15.75 57.97-17.4 57.37-18.65 56.77-19.9 55.74-20.6 54.72-21.3 53.12-21.3L53.12-21.3ZM97.93-12.7L97.93-24.9 103.63-24.9 103.63-12.05Q103.63-9.05 104.01-7.03 104.38-5 104.83-3.75L104.83-3.75Q105.38-2.25 106.03-1.4L106.03-1.4 101.58 0.4Q100.98-0.15 100.48-1L100.48-1Q100.08-1.7 99.66-2.73 99.23-3.75 99.08-5.15L99.08-5.15Q97.73-2.2 95.28-0.95 92.83 0.3 90.18 0.3L90.18 0.3Q86.23 0.3 84.56-2 82.88-4.3 82.88-8.3L82.88-8.3 82.88-24.9 88.58-24.9 88.58-8.4Q88.58-6.3 89.33-5.1 90.08-3.9 91.88-3.9L91.88-3.9Q92.98-3.9 94.06-4.53 95.13-5.15 96.01-6.3 96.88-7.45 97.41-9.08 97.93-10.7 97.93-12.7L97.93-12.7ZM135.3-19.7Q134.4-19.7 133.5-19.25 132.6-18.8 131.9-18.03 131.2-17.25 130.75-16.15 130.3-15.05 130.3-13.7L130.3-13.7 130.3 0 124.6 0 124.6-12.6Q124.6-15.6 124.2-17.63 123.8-19.65 123.35-20.9L123.35-20.9Q122.8-22.35 122.15-23.25L122.15-23.25 126.65-25.05Q127.1-24.5 127.6-23.7L127.6-23.7Q128-23 128.4-22.05 128.8-21.1 129.05-19.8L129.05-19.8Q130.05-22.7 131.95-23.98 133.85-25.25 136.25-25.25L136.25-25.25Q137.4-25.25 138.4-24.98 139.4-24.7 139.35-24.7L139.35-24.7 137.75-19.15Q137.8-19.15 137.17-19.43 136.55-19.7 135.3-19.7L135.3-19.7ZM198.08-34L195.63-30.75Q195.48-30.9 194.71-31.3 193.93-31.7 193.23-31.7L193.23-31.7Q192.78-31.7 192.13-31.58 191.48-31.45 190.88-31.03 190.28-30.6 189.86-29.8 189.43-29 189.43-27.7L189.43-27.7Q189.43-27.15 189.51-26.45 189.58-25.75 189.83-24.9L189.83-24.9 196.03-24.9 195.33-20.85 190.13-20.85 190.13-1.25Q190.13 1.75 189.36 3.78 188.58 5.8 187.33 7.18 186.08 8.55 184.56 9.47 183.03 10.4 181.53 11.15L181.53 11.15 179.23 7.35Q181.08 6.4 182.13 5.33 183.18 4.25 183.71 3.18 184.23 2.1 184.33 1.1 184.43 0.1 184.43-0.7L184.43-0.7 184.43-20.85 179.93-20.85 179.93-24.9 184.28-24.9Q184.08-25.65 184.01-26.45 183.93-27.25 183.93-27.95L183.93-27.95Q183.93-29.95 184.66-31.5 185.38-33.05 186.61-34.05 187.83-35.05 189.46-35.58 191.08-36.1 192.83-36.1L192.83-36.1Q194.78-36.1 196.03-35.48 197.28-34.85 198.08-34L198.08-34ZM232.25-23.85L232.25-12.05Q232.25-9.05 232.62-7.03 233-5 233.45-3.75L233.45-3.75Q234-2.25 234.65-1.4L234.65-1.4 230.2 0.4Q229.55-0.25 229-1.15L229-1.15Q228.55-1.95 228.15-3.08 227.75-4.2 227.65-5.75L227.65-5.75Q226.8-2.75 224.92-1.23 223.05 0.3 219.85 0.3L219.85 0.3Q217.5 0.3 215.77-0.58 214.05-1.45 212.9-3.08 211.75-4.7 211.2-7 210.65-9.3 210.65-12.1L210.65-12.1Q210.65-14.95 211.52-17.38 212.4-19.8 213.97-21.55 215.55-23.3 217.75-24.3 219.95-25.3 222.6-25.3L222.6-25.3Q224.1-25.3 225.72-25.08 227.35-24.85 228.75-24.6 230.15-24.35 231.12-24.13 232.1-23.9 232.25-23.85L232.25-23.85ZM220.8-3.7Q222.05-3.7 223.1-4.55 224.15-5.4 224.92-6.78 225.7-8.15 226.12-9.93 226.55-11.7 226.55-13.55L226.55-13.55 226.55-20.75Q226.05-20.9 225.05-21.1 224.05-21.3 223.25-21.3L223.25-21.3Q221.35-21.3 220.12-20.65 218.9-20 218.15-18.85 217.4-17.7 217.1-16.1 216.8-14.5 216.8-12.6L216.8-12.6Q216.8-10.85 216.9-9.25 217-7.65 217.42-6.4 217.85-5.15 218.65-4.42 219.45-3.7 220.8-3.7L220.8-3.7ZM266.91-24.9L272.71-24.9 272.81-24.5Q272.86-24.05 272.96-23.33 273.06-22.6 273.14-21.68 273.21-20.75 273.21-19.8L273.21-19.8Q273.21-14.25 272.39-10.43 271.56-6.6 269.89-4.23 268.21-1.85 265.64-0.8 263.06 0.25 259.56 0.25L259.56 0.25Q255.61 0.25 253.94-2.02 252.26-4.3 252.26-8.3L252.26-8.3 252.26-24.9 257.96-24.9 257.96-8.45Q257.96-6.35 258.71-5.05 259.46-3.75 261.26-3.75L261.26-3.75Q263.06-3.75 264.26-5.1 265.46-6.45 266.16-8.63 266.86-10.8 267.16-13.58 267.46-16.35 267.46-19.2L267.46-19.2Q267.46-20.25 267.39-21.28 267.31-22.3 267.19-23.1 267.06-23.9 267.01-24.4L267.01-24.4 266.91-24.9ZM302.18-25.5Q307.93-25.5 310.53-22.1 313.13-18.7 313.13-12.75L313.13-12.75Q313.13-9.95 312.43-7.53 311.73-5.1 310.3-3.33 308.88-1.55 306.73-0.53 304.58 0.5 301.73 0.5L301.73 0.5Q298.88 0.5 296.8-0.38 294.73-1.25 293.38-2.9 292.03-4.55 291.4-6.9 290.78-9.25 290.78-12.2L290.78-12.2Q290.78-15.05 291.48-17.48 292.18-19.9 293.6-21.68 295.03-23.45 297.18-24.48 299.33-25.5 302.18-25.5L302.18-25.5ZM301.68-21.3Q300.23-21.3 299.3-20.65 298.38-20 297.85-18.82 297.33-17.65 297.13-16.07 296.93-14.5 296.93-12.7L296.93-12.7Q296.93-10.85 297.15-9.2 297.38-7.55 297.98-6.33 298.58-5.1 299.6-4.4 300.63-3.7 302.23-3.7L302.23-3.7Q303.68-3.7 304.6-4.35 305.53-5 306.05-6.18 306.58-7.35 306.78-8.9 306.98-10.45 306.98-12.25L306.98-12.25Q306.98-14.1 306.75-15.75 306.53-17.4 305.93-18.65 305.33-19.9 304.3-20.6 303.28-21.3 301.68-21.3L301.68-21.3ZM346.5-12.7L346.5-24.9 352.2-24.9 352.2-12.05Q352.2-9.05 352.57-7.03 352.95-5 353.4-3.75L353.4-3.75Q353.95-2.25 354.6-1.4L354.6-1.4 350.15 0.4Q349.55-0.15 349.05-1L349.05-1Q348.65-1.7 348.22-2.73 347.8-3.75 347.65-5.15L347.65-5.15Q346.3-2.2 343.85-0.95 341.4 0.3 338.75 0.3L338.75 0.3Q334.8 0.3 333.12-2 331.45-4.3 331.45-8.3L331.45-8.3 331.45-24.9 337.15-24.9 337.15-8.4Q337.15-6.3 337.9-5.1 338.65-3.9 340.45-3.9L340.45-3.9Q341.55-3.9 342.62-4.53 343.7-5.15 344.57-6.3 345.45-7.45 345.97-9.08 346.5-10.7 346.5-12.7L346.5-12.7ZM383.86-19.7Q382.96-19.7 382.06-19.25 381.16-18.8 380.46-18.03 379.76-17.25 379.31-16.15 378.86-15.05 378.86-13.7L378.86-13.7 378.86 0 373.16 0 373.16-12.6Q373.16-15.6 372.76-17.63 372.36-19.65 371.91-20.9L371.91-20.9Q371.36-22.35 370.71-23.25L370.71-23.25 375.21-25.05Q375.66-24.5 376.16-23.7L376.16-23.7Q376.56-23 376.96-22.05 377.36-21.1 377.61-19.8L377.61-19.8Q378.61-22.7 380.51-23.98 382.41-25.25 384.81-25.25L384.81-25.25Q385.96-25.25 386.96-24.98 387.96-24.7 387.91-24.7L387.91-24.7 386.31-19.15Q386.36-19.15 385.74-19.43 385.11-19.7 383.86-19.7L383.86-19.7ZM409.98 0.2Q407.33 0.2 405.93-1.38 404.53-2.95 404.53-5.45L404.53-5.45 404.53-24.9 410.23-24.9 410.23-5.95Q410.23-4.8 410.58-4.4 410.93-4 411.63-4L411.63-4Q411.83-4 412.05-4 412.28-4 412.48-4.05L412.48-4.05Q412.68-4.05 412.93-4.1L412.93-4.1 413.53-0.5Q413.18-0.3 412.63-0.15L412.63-0.15Q412.18 0 411.5 0.1 410.83 0.2 409.98 0.2L409.98 0.2ZM407.48-36Q409.08-36 409.93-35.05 410.78-34.1 410.78-32.6L410.78-32.6Q410.78-31.1 409.9-30.1 409.03-29.1 407.33-29.1L407.33-29.1Q405.73-29.1 404.85-30.08 403.98-31.05 403.98-32.45L403.98-32.45Q403.98-34 404.85-35 405.73-36 407.48-36L407.48-36ZM428.14-20.85L428.14-24.9 432.64-24.9 433.64-30.75 438.34-31.8 438.34-24.9 444.49-24.9 443.79-20.85 438.34-20.85 438.34-6.05Q438.34-4.75 439.04-4.38 439.74-4 440.59-4L440.59-4Q441.29-4 441.99-4.1 442.69-4.2 443.24-4.35L443.24-4.35Q443.89-4.5 444.49-4.7L444.49-4.7 445.44-0.95 444.99-0.8Q444.54-0.6 443.67-0.38 442.79-0.15 441.62 0.03 440.44 0.2 439.04 0.2L439.04 0.2Q437.64 0.2 436.47-0.1 435.29-0.4 434.44-1.07 433.59-1.75 433.12-2.8 432.64-3.85 432.64-5.4L432.64-5.4 432.64-20.85 428.14-20.85ZM460.26-11.85Q460.26-15.2 461.19-17.75 462.11-20.3 463.74-22.03 465.36-23.75 467.56-24.63 469.76-25.5 472.31-25.5L472.31-25.5Q474.56-25.5 476.14-24.95 477.71-24.4 478.71-23.45 479.71-22.5 480.19-21.2 480.66-19.9 480.66-18.4L480.66-18.4Q480.66-16.6 479.66-14.98 478.66-13.35 476.79-12.13 474.91-10.9 472.26-10.18 469.61-9.45 466.31-9.4L466.31-9.4Q466.46-8.25 466.79-7.23 467.11-6.2 467.74-5.43 468.36-4.65 469.36-4.2 470.36-3.75 471.86-3.75L471.86-3.75Q472.96-3.75 474.21-4 475.46-4.25 476.51-4.6L476.51-4.6Q477.76-5 478.96-5.5L478.96-5.5 480.46-1.95Q479.16-1.3 477.66-0.8L477.66-0.8Q476.36-0.35 474.66 0 472.96 0.35 471.06 0.35L471.06 0.35Q468.16 0.35 466.11-0.53 464.06-1.4 462.76-3 461.46-4.6 460.86-6.85 460.26-9.1 460.26-11.85L460.26-11.85ZM471.86-21.6Q470.21-21.6 469.14-20.83 468.06-20.05 467.41-18.82 466.76-17.6 466.49-16.07 466.21-14.55 466.16-13L466.16-13Q468.56-13.1 470.24-13.63 471.91-14.15 472.96-14.93 474.01-15.7 474.49-16.6 474.96-17.5 474.96-18.4L474.96-18.4Q474.96-19.85 474.11-20.73 473.26-21.6 471.86-21.6L471.86-21.6ZM522.54-20.85L522.54-24.9 527.04-24.9 528.04-30.75 532.74-31.8 532.74-24.9 538.89-24.9 538.19-20.85 532.74-20.85 532.74-6.05Q532.74-4.75 533.44-4.38 534.14-4 534.99-4L534.99-4Q535.69-4 536.39-4.1 537.09-4.2 537.64-4.35L537.64-4.35Q538.29-4.5 538.89-4.7L538.89-4.7 539.84-0.95 539.39-0.8Q538.94-0.6 538.07-0.38 537.19-0.15 536.02 0.03 534.84 0.2 533.44 0.2L533.44 0.2Q532.04 0.2 530.87-0.1 529.69-0.4 528.84-1.07 527.99-1.75 527.52-2.8 527.04-3.85 527.04-5.4L527.04-5.4 527.04-20.85 522.54-20.85ZM568.06-19.7Q567.16-19.7 566.26-19.25 565.36-18.8 564.66-18.03 563.96-17.25 563.51-16.15 563.06-15.05 563.06-13.7L563.06-13.7 563.06 0 557.36 0 557.36-12.6Q557.36-15.6 556.96-17.63 556.56-19.65 556.11-20.9L556.11-20.9Q555.56-22.35 554.91-23.25L554.91-23.25 559.41-25.05Q559.86-24.5 560.36-23.7L560.36-23.7Q560.76-23 561.16-22.05 561.56-21.1 561.81-19.8L561.81-19.8Q562.81-22.7 564.71-23.98 566.61-25.25 569.01-25.25L569.01-25.25Q570.16-25.25 571.16-24.98 572.16-24.7 572.11-24.7L572.11-24.7 570.51-19.15Q570.56-19.15 569.93-19.43 569.31-19.7 568.06-19.7L568.06-19.7ZM607.53-23.85L607.53-12.05Q607.53-9.05 607.9-7.03 608.28-5 608.73-3.75L608.73-3.75Q609.28-2.25 609.93-1.4L609.93-1.4 605.48 0.4Q604.83-0.25 604.28-1.15L604.28-1.15Q603.83-1.95 603.43-3.08 603.03-4.2 602.93-5.75L602.93-5.75Q602.08-2.75 600.2-1.23 598.33 0.3 595.13 0.3L595.13 0.3Q592.78 0.3 591.05-0.58 589.33-1.45 588.18-3.08 587.03-4.7 586.48-7 585.93-9.3 585.93-12.1L585.93-12.1Q585.93-14.95 586.8-17.38 587.68-19.8 589.25-21.55 590.83-23.3 593.03-24.3 595.23-25.3 597.88-25.3L597.88-25.3Q599.38-25.3 601-25.08 602.63-24.85 604.03-24.6 605.43-24.35 606.4-24.13 607.38-23.9 607.53-23.85L607.53-23.85ZM596.08-3.7Q597.33-3.7 598.38-4.55 599.43-5.4 600.2-6.78 600.98-8.15 601.4-9.93 601.83-11.7 601.83-13.55L601.83-13.55 601.83-20.75Q601.33-20.9 600.33-21.1 599.33-21.3 598.53-21.3L598.53-21.3Q596.63-21.3 595.4-20.65 594.18-20 593.43-18.85 592.68-17.7 592.38-16.1 592.08-14.5 592.08-12.6L592.08-12.6Q592.08-10.85 592.18-9.25 592.28-7.65 592.7-6.4 593.13-5.15 593.93-4.42 594.73-3.7 596.08-3.7L596.08-3.7ZM647.94 0L642.29 0 642.29-16.15Q642.29-18.25 641.54-19.53 640.79-20.8 638.99-20.8L638.99-20.8Q637.84-20.8 636.77-20.23 635.69-19.65 634.84-18.55 633.99-17.45 633.47-15.88 632.94-14.3 632.94-12.35L632.94-12.35 632.94 0 627.24 0 627.24-12.6Q627.24-15.6 626.84-17.63 626.44-19.65 625.99-20.9L625.99-20.9Q625.44-22.35 624.79-23.25L624.79-23.25 629.29-25.05Q629.79-24.5 630.29-23.7L630.29-23.7Q630.69-23 631.09-21.98 631.49-20.95 631.74-19.65L631.74-19.65Q633.04-22.65 635.49-23.98 637.94-25.3 640.64-25.3L640.64-25.3Q644.49-25.3 646.22-22.98 647.94-20.65 647.94-16.7L647.94-16.7 647.94 0ZM675.16-25.5L675.16-25.5Q676.61-25.5 678.01-25.2 679.41-24.9 680.51-24.5L680.51-24.5Q681.81-24.05 682.91-23.55L682.91-23.55 681.21-19.65Q680.21-20.1 679.21-20.45L679.21-20.45Q678.36-20.75 677.33-21.03 676.31-21.3 675.31-21.3L675.31-21.3Q674.16-21.3 673.33-20.75 672.51-20.2 672.51-19.1L672.51-19.1Q672.51-16.25 676.66-14.65L676.66-14.65Q678.21-14.05 679.46-13.38 680.71-12.7 681.58-11.8 682.46-10.9 682.91-9.73 683.36-8.55 683.36-6.95L683.36-6.95Q683.36-5.55 682.78-4.2 682.21-2.85 681.08-1.8 679.96-0.75 678.33-0.13 676.71 0.5 674.66 0.5L674.66 0.5Q673.01 0.5 671.41 0.13 669.81-0.25 668.53-0.7 667.26-1.15 666.51-1.55L666.51-1.55 665.76-1.9 667.61-6.1 668.26-5.75Q668.91-5.35 669.91-4.9 670.91-4.45 672.06-4.08 673.21-3.7 674.16-3.7L674.16-3.7Q675.91-3.7 676.76-4.4 677.61-5.1 677.61-6.25L677.61-6.25Q677.61-7.55 676.68-8.63 675.76-9.7 673.91-10.4L673.91-10.4Q670.06-11.85 668.38-13.7 666.71-15.55 666.71-18.5L666.71-18.5Q666.71-19.9 667.36-21.18 668.01-22.45 669.13-23.43 670.26-24.4 671.81-24.95 673.36-25.5 675.16-25.5ZM718.67-22.1L715.47-19.05Q714.72-19.9 713.95-20.5 713.17-21.1 711.87-21.1L711.87-21.1Q711.12-21.1 710.2-20.88 709.27-20.65 708.47-19.78 707.67-18.9 707.15-17.2 706.62-15.5 706.62-12.6L706.62-12.6Q706.62-9.65 707.15-7.93 707.67-6.2 708.5-5.25 709.32-4.3 710.27-4.03 711.22-3.75 712.12-3.75L712.12-3.75Q712.82-3.75 713.57-3.88 714.32-4 715.02-4.17 715.72-4.35 716.25-4.5 716.77-4.65 717.02-4.75L717.02-4.75 718.42-1.15Q718.27-1.1 717.75-0.85 717.22-0.6 716.32-0.35 715.42-0.1 714.17 0.13 712.92 0.35 711.37 0.35L711.37 0.35Q708.47 0.35 706.42-0.53 704.37-1.4 703.05-3 701.72-4.6 701.1-6.85 700.47-9.1 700.47-11.85L700.47-11.85Q700.47-15.15 701.35-17.7 702.22-20.25 703.77-21.98 705.32-23.7 707.42-24.6 709.52-25.5 711.92-25.5L711.92-25.5Q714.27-25.5 715.9-24.6 717.52-23.7 718.67-22.1L718.67-22.1ZM747.19-19.7Q746.29-19.7 745.39-19.25 744.49-18.8 743.79-18.03 743.09-17.25 742.64-16.15 742.19-15.05 742.19-13.7L742.19-13.7 742.19 0 736.49 0 736.49-12.6Q736.49-15.6 736.09-17.63 735.69-19.65 735.24-20.9L735.24-20.9Q734.69-22.35 734.04-23.25L734.04-23.25 738.54-25.05Q738.99-24.5 739.49-23.7L739.49-23.7Q739.89-23 740.29-22.05 740.69-21.1 740.94-19.8L740.94-19.8Q741.94-22.7 743.84-23.98 745.74-25.25 748.14-25.25L748.14-25.25Q749.29-25.25 750.29-24.98 751.29-24.7 751.24-24.7L751.24-24.7 749.64-19.15Q749.69-19.15 749.06-19.43 748.44-19.7 747.19-19.7L747.19-19.7ZM773.31 0.2Q770.66 0.2 769.26-1.38 767.86-2.95 767.86-5.45L767.86-5.45 767.86-24.9 773.56-24.9 773.56-5.95Q773.56-4.8 773.91-4.4 774.26-4 774.96-4L774.96-4Q775.16-4 775.38-4 775.61-4 775.81-4.05L775.81-4.05Q776.01-4.05 776.26-4.1L776.26-4.1 776.86-0.5Q776.51-0.3 775.96-0.15L775.96-0.15Q775.51 0 774.83 0.1 774.16 0.2 773.31 0.2L773.31 0.2ZM770.81-36Q772.41-36 773.26-35.05 774.11-34.1 774.11-32.6L774.11-32.6Q774.11-31.1 773.23-30.1 772.36-29.1 770.66-29.1L770.66-29.1Q769.06-29.1 768.18-30.08 767.31-31.05 767.31-32.45L767.31-32.45Q767.31-34 768.18-35 769.06-36 770.81-36L770.81-36ZM794.42-1.15L794.42-35.25 800.12-36.25 800.12-21Q801.02-23.05 802.65-24.18 804.27-25.3 806.82-25.3L806.82-25.3Q809.17-25.3 810.9-24.43 812.62-23.55 813.77-21.93 814.92-20.3 815.47-18 816.02-15.7 816.02-12.9L816.02-12.9Q816.02-10.05 815.15-7.63 814.27-5.2 812.7-3.45 811.12-1.7 808.92-0.7 806.72 0.3 804.07 0.3L804.07 0.3Q802.57 0.3 800.87 0.08 799.17-0.15 797.72-0.4L797.72-0.4Q796.07-0.7 794.42-1.15L794.42-1.15ZM805.87-21.3Q804.62-21.3 803.57-20.45 802.52-19.6 801.75-18.2 800.97-16.8 800.55-15.05 800.12-13.3 800.12-11.45L800.12-11.45 800.12-4.2Q800.57-4.1 801.57-3.9 802.57-3.7 803.42-3.7L803.42-3.7Q805.27-3.7 806.52-4.35 807.77-5 808.52-6.15 809.27-7.3 809.57-8.9 809.87-10.5 809.87-12.4L809.87-12.4Q809.87-14.15 809.77-15.75 809.67-17.35 809.25-18.6 808.82-19.85 808.02-20.58 807.22-21.3 805.87-21.3L805.87-21.3ZM833.09-11.85Q833.09-15.2 834.01-17.75 834.94-20.3 836.56-22.03 838.19-23.75 840.39-24.63 842.59-25.5 845.14-25.5L845.14-25.5Q847.39-25.5 848.96-24.95 850.54-24.4 851.54-23.45 852.54-22.5 853.01-21.2 853.49-19.9 853.49-18.4L853.49-18.4Q853.49-16.6 852.49-14.98 851.49-13.35 849.61-12.13 847.74-10.9 845.09-10.18 842.44-9.45 839.14-9.4L839.14-9.4Q839.29-8.25 839.61-7.23 839.94-6.2 840.56-5.43 841.19-4.65 842.19-4.2 843.19-3.75 844.69-3.75L844.69-3.75Q845.79-3.75 847.04-4 848.29-4.25 849.34-4.6L849.34-4.6Q850.59-5 851.79-5.5L851.79-5.5 853.29-1.95Q851.99-1.3 850.49-0.8L850.49-0.8Q849.19-0.35 847.49 0 845.79 0.35 843.89 0.35L843.89 0.35Q840.99 0.35 838.94-0.53 836.89-1.4 835.59-3 834.29-4.6 833.69-6.85 833.09-9.1 833.09-11.85L833.09-11.85ZM844.69-21.6Q843.04-21.6 841.96-20.83 840.89-20.05 840.24-18.82 839.59-17.6 839.31-16.07 839.04-14.55 838.99-13L838.99-13Q841.39-13.1 843.06-13.63 844.74-14.15 845.79-14.93 846.84-15.7 847.31-16.6 847.79-17.5 847.79-18.4L847.79-18.4Q847.79-19.85 846.94-20.73 846.09-21.6 844.69-21.6L844.69-21.6ZM882.95-19.7Q882.05-19.7 881.15-19.25 880.25-18.8 879.55-18.03 878.85-17.25 878.4-16.15 877.95-15.05 877.95-13.7L877.95-13.7 877.95 0 872.25 0 872.25-12.6Q872.25-15.6 871.85-17.63 871.45-19.65 871-20.9L871-20.9Q870.45-22.35 869.8-23.25L869.8-23.25 874.3-25.05Q874.75-24.5 875.25-23.7L875.25-23.7Q875.65-23 876.05-22.05 876.45-21.1 876.7-19.8L876.7-19.8Q877.7-22.7 879.6-23.98 881.5-25.25 883.9-25.25L883.9-25.25Q885.05-25.25 886.05-24.98 887.05-24.7 887-24.7L887-24.7 885.4-19.15Q885.45-19.15 884.83-19.43 884.2-19.7 882.95-19.7L882.95-19.7Z" opacity="1" transform="matrix(1,0,0,1,0,0)" fill="#ffffff" class="slogan-text-1" data-fill-palette-color="quaternary" id="text-1"></path></svg></g></svg></g></svg></g></svg></g><g transform="matrix(1,0,0,1,82.88500390363222,0)"><svg viewBox="0 0 47.38843341989268 47.38843341989268" height="47.38843341989268" width="47.38843341989268"><g><svg xmlns="http://www.w3.org/2000/svg" version="1.1" data-icon="text" viewBox="0 0 32 32" x="0" y="0" height="47.38843341989268" width="47.38843341989268" class="icon-icon-0" data-fill-palette-color="quaternary" id="icon-0"><path d="M1 0l-1 8h1c0-2.8 2.2-5 5-5h7v25.5c0 1.4-1.1 2.5-2.5 2.5h-2.5v1h16v-1h-2.5c-1.4 0-2.5-1.1-2.5-2.5v-25.5h7c2.8 0 5 2.2 5 5h1l-1-8h-30z" fill="#ffffff" data-fill-palette-color="quaternary"></path></svg></g></svg></g><g></g></svg></g></svg></g></svg></g><defs></defs></svg><rect width="342.85155851775386" height="342.85155851775386" fill="none" stroke="none" visibility="hidden"></rect></g></svg></g></svg>